<svg width="118" height="20" viewBox="0 0 118 20" fill="none" xmlns="http://www.w3.org/2000/svg">
<g clip-path="url(#clip0_1360_33068)">
<path d="M23.6921 6.32928C21.5358 6.03606 19.365 5.84709 17.1846 5.76238C15.6825 5.70374 14.1852 5.69722 12.6855 5.73632C10.3718 5.7993 8.06291 5.97524 5.77099 6.27932C5.17499 6.35969 5.17742 6.35752 5.3785 5.85361C5.85094 4.66985 6.31853 3.48393 6.82973 2.31321C7.11077 1.66811 7.65104 1.42268 8.35606 1.41833C10.4445 1.4053 12.5305 1.41399 14.6189 1.41399C16.7073 1.41399 18.7739 1.41399 20.8502 1.41399C21.6085 1.41399 22.0955 1.70938 22.3862 2.33493C22.9531 3.55995 23.4304 4.81538 23.9319 6.06429C24.0288 6.30756 23.9731 6.36403 23.6945 6.32711L23.6921 6.32928ZM21.8362 12.8063C20.8793 12.8063 20.1016 12.1112 20.1016 11.2533C20.1016 10.3953 20.8768 9.70026 21.8362 9.70026C22.7956 9.70026 23.5709 10.3953 23.5709 11.2533C23.5709 12.1112 22.7956 12.8063 21.8362 12.8063ZM18.4347 11.4031C18.1948 11.8527 17.8266 12.2046 17.376 12.4826C16.6322 12.9409 15.7987 13.1798 14.9023 13.245C14.8103 13.2515 14.7182 13.2602 14.6237 13.2646C14.5341 13.2689 14.4444 13.2646 14.3572 13.2646C13.4172 13.2711 12.5256 13.0843 11.6995 12.6759C11.1156 12.3871 10.6383 11.9961 10.3233 11.4596C10.2846 11.3944 10.287 11.3488 10.3476 11.2989C10.4154 11.2446 10.4493 11.3032 10.4881 11.3315C11.0405 11.7485 11.6777 12.0178 12.3681 12.1894C13.2088 12.3957 14.0641 12.4696 14.9314 12.4066C15.8763 12.3393 16.7872 12.1503 17.611 11.7116C17.8435 11.5877 18.0519 11.4314 18.2675 11.2858C18.316 11.2533 18.3475 11.2359 18.4032 11.2728C18.4638 11.3097 18.4638 11.3423 18.4323 11.3988L18.4347 11.4031ZM6.91695 12.8063C5.95996 12.8063 5.18226 12.1112 5.18226 11.2533C5.18226 10.3953 5.95754 9.70026 6.91695 9.70026C7.87636 9.70026 8.65164 10.3953 8.65164 11.2533C8.65164 12.1112 7.87636 12.8063 6.91695 12.8063ZM28.7217 5.03041C28.6393 4.86751 28.5351 4.81538 28.3413 4.86751C27.6944 5.03258 27.0452 5.18462 26.4007 5.34752C26.2335 5.38879 26.0664 5.42137 25.8919 5.42789C25.5988 5.43875 25.3904 5.32798 25.262 5.09774C25.2014 4.98914 25.1457 4.88054 25.107 4.76542C24.7484 3.72068 24.305 2.70417 23.8689 1.68332C23.6775 1.23588 23.4328 0.823197 23.0258 0.499566C22.6188 0.175934 22.1149 0.0760208 21.5988 0H7.5081C6.31368 0.17159 5.66681 0.851433 5.29128 1.83536C4.85277 2.98436 4.35368 4.11381 3.89336 5.2563C3.80856 5.46699 3.69227 5.50825 3.46211 5.45613C2.55842 5.25413 1.64747 5.07168 0.743784 4.86533C0.501509 4.81103 0.397331 4.86751 0.339185 5.08254C0.242275 5.44092 0.113869 5.79496 0 6.149V6.61381C0.201088 7.01998 0.612956 7.18506 1.02725 7.35665C1.74922 7.65639 1.7468 7.50652 1.32767 8.16247C1.01271 8.65335 0.855231 9.1616 0.84554 9.73067C0.804353 12.4935 0.770434 15.2563 0.804353 18.0191C0.806776 18.3123 0.821312 18.6034 0.847962 18.8944C0.889149 19.3614 1.42942 19.811 1.99635 19.861C2.13929 19.874 2.28465 19.8501 2.42275 19.9001H3.75042C4.0048 19.8371 4.26646 19.8675 4.5257 19.8718C4.77524 19.874 4.86973 19.7915 4.86488 19.5699C4.85519 18.9683 4.86003 18.3645 4.86488 17.7628C4.86488 17.4457 4.88911 17.4262 5.24525 17.4262C11.5056 17.4262 17.766 17.4262 24.0288 17.4262C24.3922 17.4262 24.4092 17.4457 24.414 17.7867C24.4189 18.4926 24.4237 19.1985 24.4286 19.9044H27.3165C28.1233 19.7763 28.4116 19.3897 28.4261 18.6208C28.4479 17.5695 28.4261 16.5182 28.4358 15.4692C28.4503 13.7815 28.477 12.096 28.4915 10.4083C28.5012 9.43093 28.3098 8.50565 27.5733 7.73023C27.4449 7.59557 27.5588 7.56082 27.6726 7.5152C27.9973 7.38705 28.3244 7.26325 28.6466 7.12641C28.8864 7.02433 29.0803 6.87228 29.2208 6.66811V6.09904C29.0803 5.7298 28.8986 5.3801 28.7217 5.02606V5.03041Z" fill="#53C4D1"/>
<path d="M76.8545 5.53236C77.9738 5.53236 78.9695 5.50413 79.958 5.55408C80.1664 5.56494 80.5007 5.84296 80.5346 6.0341C81.0022 8.67746 81.4262 11.3273 81.8647 13.975C81.9108 14.2552 81.9737 14.5332 82.17 14.8199C82.7926 11.7509 83.4153 8.6818 84.0549 5.53236C85.0119 5.53236 85.9471 5.5063 86.8798 5.55408C87.0567 5.56277 87.3232 5.84948 87.3619 6.04062C87.97 8.90335 88.5442 11.7748 89.1305 14.6418C89.1451 14.7092 89.1742 14.7743 89.3123 14.8525C89.5327 13.5515 89.7532 12.2526 89.9688 10.9516C90.2426 9.29648 90.5042 7.63923 90.8047 5.98849C90.8362 5.81907 91.0954 5.55843 91.2601 5.55191C92.3043 5.51282 93.351 5.53236 94.4751 5.53236C93.6175 10.3868 92.7719 15.1696 91.9216 19.9611H87.4661C86.8895 16.9029 86.3177 13.8708 85.746 10.8386C85.6951 10.8343 85.6442 10.8299 85.5933 10.8234C85.0216 13.8512 84.4498 16.8768 83.8683 19.9459H79.4081C78.5649 15.1892 77.717 10.4107 76.8521 5.53019L76.8545 5.53236Z" fill="#354798"/>
<path d="M101.516 14.2006C101.138 12.2783 100.769 10.4126 100.401 8.54897C100.326 8.54897 100.251 8.55331 100.173 8.55331C99.776 10.4213 99.3787 12.2892 98.9717 14.1984C99.8511 14.1984 100.619 14.1984 101.516 14.1984V14.2006ZM106.24 19.9651H102.674C102.473 19.029 102.274 18.0994 102.07 17.1437H98.3636C98.1916 17.9495 98.0486 18.7466 97.8354 19.5285C97.7845 19.711 97.4987 19.9651 97.3073 19.9716C96.2897 20.0151 95.2673 19.9934 94.1528 19.9934C94.5647 18.2688 94.9596 16.5985 95.3618 14.9304C95.8681 12.83 96.4036 10.734 96.8736 8.62933C96.9729 8.18407 96.8784 7.69319 96.8033 7.23055C96.7161 6.69406 96.5489 6.16626 96.4036 5.57764H102.972C104.057 10.3517 105.142 15.1389 106.238 19.9651H106.24Z" fill="#354798"/>
<path d="M113.755 19.965H110.216C110.216 18.7487 110.271 17.5562 110.194 16.3703C110.145 15.6253 110.017 14.8499 109.724 14.1549C108.626 11.5376 107.446 8.94634 106.301 6.34425C106.194 6.10533 106.109 5.85772 105.981 5.53409C107.178 5.53409 108.302 5.51019 109.419 5.55581C109.605 5.56449 109.864 5.8512 109.942 6.05537C110.56 7.6605 111.141 9.27431 111.735 10.886C111.8 11.0641 111.878 11.24 112.016 11.5788C112.789 9.47414 113.506 7.51714 114.225 5.55363H117.995C117.874 5.86423 117.782 6.12922 117.668 6.38769C116.493 9.05711 115.294 11.7178 114.153 14.3981C113.913 14.9628 113.796 15.5927 113.767 16.1987C113.712 17.4346 113.75 18.6748 113.75 19.9672L113.755 19.965Z" fill="#354798"/>
<path d="M38.4877 17.0569C38.4877 14.2529 38.4974 11.5118 38.4635 8.76849C38.4635 8.62948 38.1122 8.39056 37.9063 8.37536C37.2376 8.3254 36.5617 8.38622 35.8906 8.34712C35.2946 8.31237 35.1734 8.54477 35.1783 9.02045C35.2001 11.5052 35.1855 13.99 35.1904 16.4748C35.1904 16.6573 35.2316 16.8441 35.2582 17.0569C36.3194 17.0569 37.3345 17.0569 38.4877 17.0569ZM31.6653 19.9175V5.5148C31.9245 5.50177 32.1813 5.48222 32.4381 5.48005C34.7834 5.47788 37.1262 5.4757 39.4714 5.48005C41.2473 5.48222 42.0613 6.1903 42.0661 7.74764C42.0734 11.0752 42.0734 14.4027 42.0661 17.7303C42.0613 19.2463 41.2424 19.9544 39.5198 19.9566C37.0147 19.9588 34.5072 19.9566 32.002 19.9544C31.9197 19.9544 31.8397 19.9392 31.6677 19.9175H31.6653Z" fill="#354798"/>
<path d="M61.138 8.50362C61.0629 8.50362 60.9878 8.50579 60.9127 8.50797C60.5129 10.3781 60.1156 12.2438 59.711 14.1335H62.25C61.8672 12.2048 61.5014 10.3542 61.1356 8.5058L61.138 8.50362ZM62.8121 17.0983H59.115C58.909 18.0171 58.7031 18.9424 58.4851 19.9089H54.897C55.5172 17.3307 56.1302 14.7634 56.748 12.1982C57.0338 11.008 57.3682 9.82421 57.6008 8.62526C57.6928 8.15175 57.608 7.63916 57.5329 7.15697C57.4481 6.62048 57.281 6.09268 57.1404 5.51709H63.7134C64.8012 10.3107 65.8841 15.0805 66.9889 19.9545C65.8526 19.9545 64.7673 19.9697 63.6819 19.935C63.551 19.9306 63.3621 19.6591 63.3209 19.4897C63.1295 18.7013 62.9793 17.9041 62.8121 17.1005V17.0983Z" fill="#354798"/>
<path d="M47.8613 14.1746V17.0829H53.3271V19.9044H44.312V5.54297H53.3222V8.35357H49.3828C48.333 8.35357 47.808 8.82055 47.808 9.75452V11.2684H51.5173C51.275 12.2067 51.086 13.0386 50.8268 13.8553C50.7808 13.9987 50.4488 14.1507 50.2429 14.1594C49.47 14.1963 48.6923 14.1746 47.8638 14.1746H47.8613Z" fill="#354798"/>
<path d="M77.5934 19.9371H68.571V5.53662H72.0768V17.0896H77.5958C77.5958 18.067 77.5958 18.9662 77.5958 19.9371H77.5934Z" fill="#354798"/>
</g>
<defs>
<clipPath id="clip0_1360_33068">
<rect width="118" height="20" fill="white"/>
</clipPath>
</defs>
</svg>
