<?xml version="1.0" standalone="no"?>
<!DOCTYPE svg PUBLIC "-//W3C//DTD SVG 20010904//EN"
 "http://www.w3.org/TR/2001/REC-SVG-20010904/DTD/svg10.dtd">
<svg version="1.0" xmlns="http://www.w3.org/2000/svg"
 width="32.000000pt" height="32.000000pt" viewBox="0 0 32.000000 32.000000"
 preserveAspectRatio="xMidYMid meet">

<g transform="translate(0.000000,32.000000) scale(0.100000,-0.100000)"
fill="#000000" stroke="none">
<path d="M56 203 c-9 -26 -16 -73 -16 -105 0 -51 2 -58 20 -58 11 0 20 7 20
15 0 12 16 15 80 15 64 0 80 -3 80 -15 0 -8 9 -15 20 -15 18 0 20 7 20 58 0
32 -7 79 -16 105 l-16 47 -88 0 -88 0 -16 -47z m178 11 c12 -31 5 -34 -74 -34
-79 0 -86 3 -74 34 9 23 139 23 148 0z m16 -89 l0 -35 -90 0 -90 0 0 35 0 35
90 0 90 0 0 -35z"/>
<path d="M87 144 c-14 -15 -6 -34 14 -34 14 0 19 5 17 17 -3 18 -20 27 -31 17z"/>
<path d="M207 144 c-14 -15 -6 -34 14 -34 14 0 19 5 17 17 -3 18 -20 27 -31
17z"/>
</g>
</svg>
